<?xml version="1.0" encoding="UTF-8"?>
<svg id="Layer_2" data-name="Layer 2" xmlns="http://www.w3.org/2000/svg" viewBox="0 0 505.02 467.89">
  <defs>
    <style>
      .cls-1 {
        fill: #fff;
      }
    </style>
  </defs>
  <g id="Layer_1-2" data-name="Layer 1">
    <path class="cls-1" d="M204,4l28-4,.05,259.54c-1.54,17.64-3.65,34.73-8.12,51.88-16.38,62.85-58.67,117.56-109.84,156.14-1.92.42-24.11-15.58-24.07-17.06,39.38-28.24,74.85-66.76,94.45-111.53,2.98-6.8,6.45-14.73,7.53-21.97H5l-5-28h199c.44-1.75-.72-2-1.49-3.01-10.11-13.22-45.92-27.21-61.99-33.01C91.77,237.18,45.57,227.45.11,217.89l4.95-26.81c56.41,9.45,112.8,23.63,165.61,45.75l32.32,17.17c-11.66-27.71-34.6-50.36-58.1-68.39-33.32-25.57-73.6-45.05-112.9-59.62l15.97-24.55c57.59,22.12,113.17,53.63,155.02,99.56-8.24-62.1-53.63-115.05-103.98-149.02-.38-1.54.25-1.6,1.06-2.42,1.9-1.92,22.03-15.23,23.43-15.24,32.52,22.61,58.53,53,80.5,85.67V4Z"/>
    <path class="cls-1" d="M301,4v116l19.6-27.9c17.72-21.75,37.53-42.03,60.71-57.97,3.25,2.39,24.37,14.6,23.69,17.36-50.03,35.78-94.63,86.54-103.99,149.52,37.35-39.56,84.38-69.75,134.31-91.18,3.63-1.56,18.47-8.34,20.95-7.68l15.75,23.33c-54.74,22.33-115.51,51.73-153,99.06-2.73,3.44-19.05,26.94-17.02,29.47,23.8-15.13,50.39-25.61,77.22-34.27,39.23-12.65,80.16-22.06,120.76-28.73l5.02,26.46c-47.57,10.64-95.85,20.2-141.54,37.53-13.04,4.95-27.91,11.01-39.79,18.21-6.57,3.98-14.74,9.34-18.69,15.81h200l-5,28h-188c17.13,54.88,56.27,100.07,101.99,133.51l-13.1,10.88-10.24,6.5c-63.87-48.24-111.76-119.71-117.69-201.35L273,0l28,4Z"/>
  </g>
</svg>