<?xml version="1.0" encoding="UTF-8"?>
<svg id="Layer_2" data-name="Layer 2" xmlns="http://www.w3.org/2000/svg" viewBox="-2 -2 501.3 350.77">
  <defs>
    <style>
      .cls-1 {
        fill: #5f4e39;
        stroke: #d9bb92;
        stroke-width: 4px;
        stroke-linejoin: round;
        paint-order: stroke fill;
      }
    </style>
  </defs>
  <g id="Layer_1-2" data-name="Layer 1">
    <path class="cls-1" d="M265.24,266.54c-2.47-66.59.05-266.54.05-266.54l28,120s13.67-21.78,19.6-27.9c41.02-42.26,84.39-40.62,84.39-40.62-50.03,35.78-94.63,86.54-103.99,149.52,37.35-39.56,87.46-77.49,141.79-77.55,9.98-.01,29.22,2.02,29.22,2.02-54.74,22.33-115.51,51.73-153,99.06-2.73,3.44-19.05,26.94-17.02,29.47,23.8-15.13,49.71-28.13,77.22-34.27,73.88-16.49,125.79-2.28,125.79-2.28-47.57,10.64-95.85,20.2-141.54,37.53-13.04,4.95-27.91,11.01-39.79,18.21-6.57,3.98-14.74,9.34-18.69,15.81h200s-112.14,20.48-151.63,49.08c-21.79,15.78-77.04,19.26-80.41-71.54Z"/>
    <path class="cls-1" d="M232.06,266.54C234.53,199.95,232.02,0,232.02,0l-28,120s-13.67-21.78-19.6-27.9c-41.02-42.26-84.39-40.62-84.39-40.62,50.03,35.78,94.63,86.54,103.99,149.52-37.35-39.56-87.46-77.49-141.79-77.55-9.98-.01-29.22,2.02-29.22,2.02,54.74,22.33,115.51,51.73,153,99.06,2.73,3.44,19.05,26.94,17.02,29.47-23.8-15.13-49.71-28.13-77.22-34.27-73.88-16.49-125.79-2.28-125.79-2.28,47.57,10.64,95.85,20.2,141.54,37.53,13.04,4.95,27.91,11.01,39.79,18.21,6.57,3.98,14.74,9.34,18.69,15.81H.02s112.14,20.48,151.63,49.08c21.79,15.78,77.04,19.26,80.41-71.54Z"/>
  </g>
</svg>
